<svg xmlns="http://www.w3.org/2000/svg" viewBox="0 0 512 512">
  <!-- Background -->
  <rect width="512" height="512" rx="115" fill="#2d5016"/>
  
  <!-- Inner circle -->
  <circle cx="256" cy="256" r="200" fill="#4a7c2a"/>
  
  <!-- Leaf design -->
  <g>
    <!-- Main leaf -->
    <ellipse cx="256" cy="240" rx="60" ry="90" fill="#8bc34a"/>
    <!-- Leaf vein -->
    <line x1="256" y1="150" x2="256" y2="330" stroke="#5d7c2f" stroke-width="6" stroke-linecap="round"/>
  </g>
  
  <!-- Fox face -->
  <g transform="translate(256, 320)">
    <!-- Face -->
    <circle cx="0" cy="0" r="40" fill="#ff6b35"/>
    
    <!-- Ears -->
    <path d="M -35,-25 L -25,-45 L -15,-25 Z" fill="#ff6b35"/>
    <path d="M 35,-25 L 25,-45 L 15,-25 Z" fill="#ff6b35"/>
    
    <!-- Inner ears -->
    <path d="M -30,-28 L -25,-38 L -20,-28 Z" fill="#fff"/>
    <path d="M 30,-28 L 25,-38 L 20,-28 Z" fill="#fff"/>
    
    <!-- Eyes -->
    <circle cx="-15" cy="-8" r="10" fill="#fff"/>
    <circle cx="15" cy="-8" r="10" fill="#fff"/>
    <circle cx="-15" cy="-8" r="5" fill="#000"/>
    <circle cx="15" cy="-8" r="5" fill="#000"/>
    
    <!-- Nose -->
    <circle cx="0" cy="5" r="5" fill="#000"/>
    
    <!-- Mouth -->
    <path d="M -10,10 Q 0,15 10,10" stroke="#000" stroke-width="3" fill="none" stroke-linecap="round"/>
    
    <!-- Whiskers -->
    <line x1="-40" y1="0" x2="-25" y2="-2" stroke="#fff" stroke-width="2"/>
    <line x1="-40" y1="8" x2="-25" y2="5" stroke="#fff" stroke-width="2"/>
    <line x1="40" y1="0" x2="25" y2="-2" stroke="#fff" stroke-width="2"/>
    <line x1="40" y1="8" x2="25" y2="5" stroke="#fff" stroke-width="2"/>
  </g>
  
  <!-- Text -->
  <text x="256" y="450" font-family="Arial, sans-serif" font-size="56" font-weight="bold" text-anchor="middle" fill="#fff">Wildlife</text>
</svg>
