<svg xmlns="http://www.w3.org/2000/svg" viewBox="0 0 512 512" width="512" height="512">
  <rect width="512" height="512" rx="100" fill="#2d5016"/>
  <circle cx="256" cy="256" r="180" fill="#4a7c2a"/>
  
  <!-- Leaf design -->
  <path d="M256 140 Q220 180 220 230 Q220 280 256 320 Q292 280 292 230 Q292 180 256 140 Z" fill="#8bc34a"/>
  <path d="M256 140 L256 320" stroke="#2d5016" stroke-width="8" stroke-linecap="round"/>
  
  <!-- Fox icon -->
  <g transform="translate(256, 300) scale(1.5)">
    <circle cx="0" cy="0" r="25" fill="#ff6b35"/>
    <circle cx="-12" cy="-8" r="8" fill="#fff"/>
    <circle cx="12" cy="-8" r="8" fill="#fff"/>
    <circle cx="-12" cy="-8" r="4" fill="#000"/>
    <circle cx="12" cy="-8" r="4" fill="#000"/>
    <path d="M -8 5 Q 0 8 8 5" stroke="#000" stroke-width="2" fill="none"/>
    <polygon points="-25,-15 -15,-30 -10,-15" fill="#ff6b35"/>
    <polygon points="25,-15 15,-30 10,-15" fill="#ff6b35"/>
  </g>
  
  <text x="256" y="420" font-family="Arial, sans-serif" font-size="48" font-weight="bold" text-anchor="middle" fill="#fff">Wildlife</text>
</svg>
